<?xml version="1.0" standalone="no"?>
<!DOCTYPE svg PUBLIC "-//W3C//DTD SVG 1.1//EN" "http://www.w3.org/Graphics/SVG/1.1/DTD/svg11.dtd" >
<svg>
<metadata>
Created by FontForge 20120731 at Tue Oct 15 18:58:25 2019
 By www-data
EllenLuff.2018
</metadata>
<defs>
<font id="Bison-Bold" horiz-adv-x="417" >
  <font-face 
    font-family="Bison Bold"
    font-weight="300"
    font-stretch="normal"
    units-per-em="1000"
    panose-1="0 0 4 0 0 0 0 0 0 0"
    ascent="800"
    descent="-200"
    x-height="700"
    cap-height="700"
    bbox="-179 -203 816 894"
    underline-thickness="50"
    underline-position="-50"
    unicode-range="U+0020-2212"
  />
<missing-glyph horiz-adv-x="548" 
d="M498 700v-700h-448v700h448zM275 420l-63 195h-86l87 -258l-93 -272h77l69 210l68 -210h88l-93 272l87 258h-77z" />
    <glyph glyph-name=".notdef" horiz-adv-x="548" 
d="M498 700v-700h-448v700h448zM275 420l-63 195h-86l87 -258l-93 -272h77l69 210l68 -210h88l-93 272l87 258h-77z" />
    <glyph glyph-name="NULL" horiz-adv-x="0" 
 />
    <glyph glyph-name="nonmarkingreturn" horiz-adv-x="155" 
 />
    <glyph glyph-name="space" unicode=" " horiz-adv-x="155" 
 />
    <glyph glyph-name="A" unicode="A" 
d="M271 111h-126l-20 -111h-112l140 700h110l140 -700h-112zM252 221l-44 251l-44 -251h88z" />
    <glyph glyph-name="Aacute" unicode="&#xc1;" 
d="M271 111h-126l-20 -111h-112l140 700h110l140 -700h-112zM252 221l-44 251l-44 -251h88zM350 847h-110l-55 -110h55z" />
    <glyph glyph-name="Acircumflex" unicode="&#xc2;" 
d="M271 111h-126l-20 -111h-112l140 700h110l140 -700h-112zM252 221l-44 251l-44 -251h88zM263 737l-55 55l-55 -55h-56l56 110h110l55 -110h-55z" />
    <glyph glyph-name="Adieresis" unicode="&#xc4;" 
d="M271 111h-126l-20 -111h-112l140 700h110l140 -700h-112zM252 221l-44 251l-44 -251h88zM97.5 750.5q14.5 -14.5 34.5 -14.5t34.5 14.5t14.5 34.5q0 21 -14.5 35.5t-34.5 14.5t-34.5 -14.5t-14.5 -35.5q0 -20 14.5 -34.5zM249.5 750.5q14.5 -14.5 34.5 -14.5t34.5 14.5
t14.5 34.5q0 21 -14.5 35.5t-34.5 14.5t-34.5 -14.5t-14.5 -35.5q0 -20 14.5 -34.5z" />
    <glyph glyph-name="Agrave" unicode="&#xc0;" 
d="M271 111h-126l-20 -111h-112l140 700h110l140 -700h-112zM252 221l-44 251l-44 -251h88zM241 737l-55 110h-110l110 -110h55z" />
    <glyph glyph-name="Aring" unicode="&#xc5;" 
d="M271 111h-126l-20 -111h-112l140 700h110l140 -700h-112zM252 221l-44 251l-44 -251h88zM257 760.5q20 20.5 20 48.5q0 29 -20 49.5t-49 20.5t-49.5 -20.5t-20.5 -49.5t20.5 -49t49.5 -20t49 20.5zM218 819.5q4 -4.5 4 -10.5t-4 -10t-10 -4t-10.5 4t-4.5 10t4.5 10.5
t10.5 4.5t10 -4.5z" />
    <glyph glyph-name="Atilde" unicode="&#xc3;" 
d="M271 111h-126l-20 -111h-112l140 700h110l140 -700h-112zM252 221l-44 251l-44 -251h88zM157 767q15 4 39 -11q31 -21 60 -21q26 0 46.5 15.5t38.5 40.5l-45 32q-20 -27 -35 -32q-14 -3 -35 11q-33 21 -62 21q-7 0 -19 -2q-36 -9 -70 -53l44 -33q21 29 38 32z" />
    <glyph glyph-name="AE" unicode="&#xc6;" horiz-adv-x="575" 
d="M168 700h379v-110h-180v-176h124v-110h-124v-194h180v-110h-290v110h-111l-25 -110h-113zM257 591l-85 -371h85v371z" />
    <glyph glyph-name="B" unicode="B" horiz-adv-x="398" 
d="M321 39q26 23 38 56q13 30 13 73v64q0 87 -55 126q40 37 40 108v65q0 42 -13 74q-12 33 -38 56q-44 39 -115 39h-151v-700h166q72 0 115 39zM150 294h56q28 0 41 -12q15 -14 15 -50v-64q0 -34 -14 -47q-12 -11 -42 -11h-56v184zM150 590h41q30 0 42 -11q14 -14 14 -48
v-65q0 -35 -15 -50q-13 -12 -41 -12h-41v186z" />
    <glyph glyph-name="C" unicode="C" horiz-adv-x="390" 
d="M313 33q50 48 50 131v90h-110v-90q0 -37 -14 -50q-13 -12 -42 -12q-28 0 -41 12q-15 14 -15 50v372q0 36 15 50q13 12 41 12q29 0 42 -12q14 -13 14 -50v-62h110v62q0 83 -50 131q-44 41 -116 41q-70 0 -116 -41q-50 -50 -50 -131v-372q0 -81 50 -131q46 -41 116 -41
q72 0 116 41z" />
    <glyph glyph-name="Ccedilla" unicode="&#xc7;" horiz-adv-x="390" 
d="M253 475v62q0 37 -14 50q-13 12 -42 12q-28 0 -41 -12q-15 -14 -15 -50v-372q0 -36 15 -50q13 -12 41 -12q29 0 42 12q14 13 14 50v90h110v-90q0 -83 -50 -131q-34 -33 -90 -39v-1q0 -4 5 -8q16 -11 26 -25t10 -38q0 -29 -20 -49t-49 -20q-28 0 -48.5 20t-20.5 49h55
q0 -6 4 -10t10 -4t10 4t4 10t-2.5 9t-10.5 9q-28 20 -28 53v1q-51 7 -87 39q-50 50 -50 131v372q0 81 50 131q46 41 116 41q72 0 116 -41q50 -48 50 -131v-62h-110z" />
    <glyph glyph-name="D" unicode="D" horiz-adv-x="403" 
d="M321 39q25 22 39 56q12 32 12 73v360q0 84 -50 130q-45 42 -116 42h-166v-700h166q72 0 115 39zM150 590h56q28 0 41 -12q15 -15 15 -50v-360q0 -35 -14 -47q-12 -11 -42 -11h-56v480z" />
    <glyph glyph-name="Eth" unicode="&#xd0;" horiz-adv-x="415" 
d="M384 528v-360q0 -41 -12 -73q-14 -34 -39 -56q-43 -39 -115 -39h-166v294h-46v110h46v296h166q71 0 116 -42q50 -46 50 -130zM274 528q0 35 -15 50q-13 12 -41 12h-56v-186h47v-110h-47v-184h56q30 0 42 11q14 12 14 47v360z" />
    <glyph glyph-name="E" unicode="E" horiz-adv-x="358" 
d="M150 590v-176h124v-110h-124v-194h180v-110h-290v700h290v-110h-180z" />
    <glyph glyph-name="Eacute" unicode="&#xc9;" horiz-adv-x="358" 
d="M150 590v-176h124v-110h-124v-194h180v-110h-290v700h290v-110h-180zM322 847h-110l-55 -110h55z" />
    <glyph glyph-name="Ecircumflex" unicode="&#xca;" horiz-adv-x="358" 
d="M150 590v-176h124v-110h-124v-194h180v-110h-290v700h290v-110h-180zM246 737l-55 55l-55 -55h-56l56 110h110l55 -110h-55z" />
    <glyph glyph-name="Edieresis" unicode="&#xcb;" horiz-adv-x="358" 
d="M150 590v-176h124v-110h-124v-194h180v-110h-290v700h290v-110h-180zM74.5 750.5q14.5 -14.5 34.5 -14.5t34.5 14.5t14.5 34.5q0 21 -14.5 35.5t-34.5 14.5t-34.5 -14.5t-14.5 -35.5q0 -20 14.5 -34.5zM226.5 750.5q14.5 -14.5 34.5 -14.5t34.5 14.5t14.5 34.5
q0 21 -14.5 35.5t-34.5 14.5t-34.5 -14.5t-14.5 -35.5q0 -20 14.5 -34.5z" />
    <glyph glyph-name="Egrave" unicode="&#xc8;" horiz-adv-x="358" 
d="M150 590v-176h124v-110h-124v-194h180v-110h-290v700h290v-110h-180zM213 737l-55 110h-110l110 -110h55z" />
    <glyph glyph-name="F" unicode="F" horiz-adv-x="344" 
d="M150 590v-176h125v-110h-125v-304h-110v700h290v-110h-180z" />
    <glyph glyph-name="G" unicode="G" horiz-adv-x="395" 
d="M313 33q50 48 50 131v241h-165v-110h55v-131q0 -37 -14 -50q-13 -12 -42 -12q-28 0 -41 12q-15 14 -15 50v372q0 36 15 50q13 12 41 12q29 0 42 -12q14 -13 14 -50v-62h110v62q0 83 -50 131q-44 41 -116 41q-70 0 -116 -41q-50 -50 -50 -131v-372q0 -81 50 -131
q46 -41 116 -41q72 0 116 41z" />
    <glyph glyph-name="H" unicode="H" horiz-adv-x="412" 
d="M372 700v-700h-110v304h-112v-304h-110v700h110v-286h112v286h110z" />
    <glyph glyph-name="I" unicode="I" horiz-adv-x="190" 
d="M150 700h-110v-700h110v700z" />
    <glyph glyph-name="Iacute" unicode="&#xcd;" horiz-adv-x="190" 
d="M150 700h-110v-700h110v700zM232 847h-110l-55 -110h55z" />
    <glyph glyph-name="Icircumflex" unicode="&#xce;" horiz-adv-x="189" 
d="M150 700h-110v-700h110v700zM150 737l-55 55l-55 -55h-56l56 110h110l55 -110h-55z" />
    <glyph glyph-name="Idieresis" unicode="&#xcf;" horiz-adv-x="190" 
d="M150 700h-110v-700h110v700zM-15.5 750.5q14.5 -14.5 34.5 -14.5t34.5 14.5t14.5 34.5q0 21 -14.5 35.5t-34.5 14.5t-34.5 -14.5t-14.5 -35.5q0 -20 14.5 -34.5zM136.5 750.5q14.5 -14.5 34.5 -14.5t34.5 14.5t14.5 34.5q0 21 -14.5 35.5t-34.5 14.5t-34.5 -14.5
t-14.5 -35.5q0 -20 14.5 -34.5z" />
    <glyph glyph-name="Igrave" unicode="&#xcc;" horiz-adv-x="190" 
d="M150 700h-110v-700h110v700zM123 737l-55 110h-110l110 -110h55z" />
    <glyph glyph-name="J" unicode="J" horiz-adv-x="382" 
d="M297 33q50 50 50 131v536h-110v-536q0 -36 -15 -50q-13 -12 -41 -12q-29 0 -42 12q-14 13 -14 50v87h-110v-87q0 -83 50 -131q44 -41 116 -41q70 0 116 41z" />
    <glyph glyph-name="K" unicode="K" horiz-adv-x="404" 
d="M391 0h-118l-85 224l-38 -87v-137h-110v700h110v-284l122 284h119l-141 -332z" />
    <glyph glyph-name="L" unicode="L" horiz-adv-x="343" 
d="M330 110h-180v590h-110v-700h290v110z" />
    <glyph glyph-name="M" unicode="M" horiz-adv-x="542" 
d="M502 700v-700h-110v349l-89 -239h-64l-89 239v-349h-110v700h63l168 -388l168 388h63z" />
    <glyph glyph-name="N" unicode="N" horiz-adv-x="414" 
d="M378 0h-64l-168 355v-355h-110v700h64l168 -354v354h110v-700z" />
    <glyph glyph-name="Ntilde" unicode="&#xd1;" horiz-adv-x="414" 
d="M378 0h-64l-168 355v-355h-110v700h64l168 -354v354h110v-700zM156 767q15 4 39 -11q31 -21 60 -21q26 0 46.5 15.5t38.5 40.5l-45 32q-20 -27 -35 -32q-14 -3 -35 11q-33 21 -62 21q-7 0 -19 -2q-36 -9 -70 -53l44 -33q21 29 38 32z" />
    <glyph glyph-name="O" unicode="O" horiz-adv-x="394" 
d="M313 33q50 48 50 131v372q0 83 -50 131q-44 41 -116 41t-116 -41q-50 -48 -50 -131v-372q0 -83 50 -131q44 -41 116 -41t116 41zM238 586q15 -13 15 -50v-372q0 -37 -15 -50q-12 -12 -41 -12q-28 0 -41 12q-15 14 -15 50v372q0 36 15 50q13 12 41 12q29 0 41 -12z" />
    <glyph glyph-name="Oacute" unicode="&#xd3;" horiz-adv-x="394" 
d="M313 33q50 48 50 131v372q0 83 -50 131q-44 41 -116 41t-116 -41q-50 -48 -50 -131v-372q0 -83 50 -131q44 -41 116 -41t116 41zM238 586q15 -13 15 -50v-372q0 -37 -15 -50q-12 -12 -41 -12q-28 0 -41 12q-15 14 -15 50v372q0 36 15 50q13 12 41 12q29 0 41 -12z
M334 847h-110l-55 -110h55z" />
    <glyph glyph-name="Ocircumflex" unicode="&#xd4;" horiz-adv-x="394" 
d="M148 848h99l89 -111h-94l-45 55l-44 -55h-94zM313 33q50 48 50 131v372q0 83 -50 131q-44 41 -116 41t-116 -41q-50 -48 -50 -131v-372q0 -83 50 -131q44 -41 116 -41t116 41zM238 586q15 -13 15 -50v-372q0 -37 -15 -50q-12 -12 -41 -12q-28 0 -41 12q-15 14 -15 50v372
q0 36 15 50q13 12 41 12q29 0 41 -12z" />
    <glyph glyph-name="Odieresis" unicode="&#xd6;" horiz-adv-x="394" 
d="M313 33q50 48 50 131v372q0 83 -50 131q-44 41 -116 41t-116 -41q-50 -48 -50 -131v-372q0 -83 50 -131q44 -41 116 -41t116 41zM238 586q15 -13 15 -50v-372q0 -37 -15 -50q-12 -12 -41 -12q-28 0 -41 12q-15 14 -15 50v372q0 36 15 50q13 12 41 12q29 0 41 -12z
M86.5 750.5q14.5 -14.5 34.5 -14.5t34.5 14.5t14.5 34.5q0 21 -14.5 35.5t-34.5 14.5t-34.5 -14.5t-14.5 -35.5q0 -20 14.5 -34.5zM238.5 750.5q14.5 -14.5 34.5 -14.5t34.5 14.5t14.5 34.5q0 21 -14.5 35.5t-34.5 14.5t-34.5 -14.5t-14.5 -35.5q0 -20 14.5 -34.5z" />
    <glyph glyph-name="Ograve" unicode="&#xd2;" horiz-adv-x="394" 
d="M313 33q50 48 50 131v372q0 83 -50 131q-44 41 -116 41t-116 -41q-50 -48 -50 -131v-372q0 -83 50 -131q44 -41 116 -41t116 41zM238 586q15 -13 15 -50v-372q0 -37 -15 -50q-12 -12 -41 -12q-28 0 -41 12q-15 14 -15 50v372q0 36 15 50q13 12 41 12q29 0 41 -12z
M225 737l-55 110h-110l110 -110h55z" />
    <glyph glyph-name="Oslash" unicode="&#xd8;" horiz-adv-x="404" 
d="M354 614q14 -37 14 -79v-372q0 -83 -50 -131q-44 -41 -116 -41t-116 41l-25 -55l-50 23l39 85q-14 37 -14 78v372q0 83 50 131q44 41 116 41q74 0 115 -40l26 55l50 -22zM146 294l112 243q0 36 -15 48q-12 12 -41 12q-28 0 -41 -12q-15 -14 -15 -50v-241zM258 405
l-112 -243q0 -35 15 -49q13 -12 41 -12q29 0 41 12q15 13 15 50v242z" />
    <glyph glyph-name="Otilde" unicode="&#xd5;" horiz-adv-x="396" 
d="M198 92q57 0 57 69v378q0 69 -57 69t-57 -69v-378q0 -69 57 -69zM74 662q43 46 124 46t124 -46t43 -130v-364q0 -84 -43 -130t-124 -46t-124 46t-43 130v364q0 84 43 130zM147 767q15 4 39 -11q31 -21 60 -21q26 0 46.5 15.5t38.5 40.5l-45 32q-20 -27 -35 -32
q-14 -3 -35 11q-33 21 -62 21q-7 0 -19 -2q-36 -9 -70 -53l44 -33q21 29 38 32z" />
    <glyph glyph-name="OE" unicode="&#x152;" horiz-adv-x="572" 
d="M364 590v-176h124v-110h-124v-194h180v-110h-347q-70 0 -116 41q-50 48 -50 131v356q0 84 50 130q47 42 116 42h347v-110h-180zM253 590h-56q-28 0 -41 -12q-15 -15 -15 -50v-356q0 -36 15 -50q13 -12 41 -12h56v480z" />
    <glyph glyph-name="P" unicode="P" horiz-adv-x="392" 
d="M150 280h56q72 0 116 41q50 46 50 131v76q0 84 -50 130q-45 42 -116 42h-166v-700h110v280zM150 590h56q28 0 41 -12q15 -15 15 -50v-76q0 -36 -15 -50q-13 -12 -41 -12h-56v200z" />
    <glyph glyph-name="Q" unicode="Q" horiz-adv-x="401" 
d="M378 -22v-110h-14q-70 0 -116 41q-34 32 -45 83h-6q-34 0 -64 11t-52 31q-50 46 -50 130v372q0 85 50 131q44 41 116 41t116 -41q50 -46 50 -131v-372q0 -84 -50 -130l-4 -4q2 -29 14 -40q13 -12 41 -12h14zM197 102q29 0 41 12q15 14 15 50v372q0 37 -15 50
q-12 12 -41 12q-28 0 -41 -12q-15 -14 -15 -50v-372q0 -35 15 -50q13 -12 41 -12z" />
    <glyph glyph-name="R" unicode="R" horiz-adv-x="397" 
d="M369 0h-112l-57 281h-50v-281h-110v700h166q71 0 116 -42q50 -46 50 -130v-75q0 -85 -50 -131q-7 -7 -16 -13zM262 528q0 35 -15 50q-13 12 -41 12h-56v-199h56q28 0 41 12q15 14 15 50v75z" />
    <glyph glyph-name="S" unicode="S" horiz-adv-x="380" 
d="M306 33q50 48 50 131v44q0 96 -74 162q-20 18 -72 46q-29 16 -39 24q-37 33 -37 79v17q0 36 15 50q13 12 41 12q29 0 41 -12q15 -13 15 -50v-61h110v61q0 83 -50 131q-44 41 -116 41t-116 -41q-50 -48 -50 -131v-17q0 -47 19 -88t55 -73q22 -19 69 -44q34 -19 42 -26
q37 -34 37 -80v-44q0 -37 -15 -50q-12 -12 -41 -12q-28 0 -41 12q-15 14 -15 50v91h-110v-91q0 -83 50 -131q44 -41 116 -41t116 41z" />
    <glyph glyph-name="T" unicode="T" horiz-adv-x="353" 
d="M344 590h-112v-590h-110v590h-112v110h334v-110z" />
    <glyph glyph-name="U" unicode="U" horiz-adv-x="402" 
d="M317 33q50 50 50 131v536h-110v-536q0 -36 -15 -50q-13 -12 -41 -12q-29 0 -42 12q-14 13 -14 50v536h-110v-536q0 -83 50 -131q44 -41 116 -41q70 0 116 41z" />
    <glyph glyph-name="Uacute" unicode="&#xda;" horiz-adv-x="402" 
d="M317 33q50 50 50 131v536h-110v-536q0 -36 -15 -50q-13 -12 -41 -12q-29 0 -42 12q-14 13 -14 50v536h-110v-536q0 -83 50 -131q44 -41 116 -41q70 0 116 41zM338 847h-110l-55 -110h55z" />
    <glyph glyph-name="Ucircumflex" unicode="&#xdb;" horiz-adv-x="402" 
d="M317 33q50 50 50 131v536h-110v-536q0 -36 -15 -50q-13 -12 -41 -12q-29 0 -42 12q-14 13 -14 50v536h-110v-536q0 -83 50 -131q44 -41 116 -41q70 0 116 41zM256 737l-55 55l-55 -55h-56l56 110h110l55 -110h-55z" />
    <glyph glyph-name="Udieresis" unicode="&#xdc;" horiz-adv-x="402" 
d="M317 33q50 50 50 131v536h-110v-536q0 -36 -15 -50q-13 -12 -41 -12q-29 0 -42 12q-14 13 -14 50v536h-110v-536q0 -83 50 -131q44 -41 116 -41q70 0 116 41zM90.5 750.5q14.5 -14.5 34.5 -14.5t34.5 14.5t14.5 34.5q0 21 -14.5 35.5t-34.5 14.5t-34.5 -14.5t-14.5 -35.5
q0 -20 14.5 -34.5zM242.5 750.5q14.5 -14.5 34.5 -14.5t34.5 14.5t14.5 34.5q0 21 -14.5 35.5t-34.5 14.5t-34.5 -14.5t-14.5 -35.5q0 -20 14.5 -34.5z" />
    <glyph glyph-name="Ugrave" unicode="&#xd9;" horiz-adv-x="402" 
d="M317 33q50 50 50 131v536h-110v-536q0 -36 -15 -50q-13 -12 -41 -12q-29 0 -42 12q-14 13 -14 50v536h-110v-536q0 -83 50 -131q44 -41 116 -41q70 0 116 41zM229 737l-55 110h-110l110 -110h55z" />
    <glyph glyph-name="V" unicode="V" horiz-adv-x="412" 
d="M289 700h112l-140 -700h-110l-140 700h112l83 -473z" />
    <glyph glyph-name="W" unicode="W" horiz-adv-x="519" 
d="M504 700l-86 -700h-61l-98 348l-97 -348h-61l-86 700h111l38 -349l64 238h63l64 -238l38 349h111z" />
    <glyph glyph-name="Wacute" unicode="&#x1e82;" horiz-adv-x="519" 
d="M504 700l-86 -700h-61l-98 348l-97 -348h-61l-86 700h111l38 -349l64 238h63l64 -238l38 349h111zM397 847h-110l-55 -110h55z" />
    <glyph glyph-name="Wcircumflex" unicode="&#x174;" horiz-adv-x="519" 
d="M504 700l-86 -700h-61l-98 348l-97 -348h-61l-86 700h111l38 -349l64 238h63l64 -238l38 349h111zM314 737l-55 55l-55 -55h-56l56 110h110l55 -110h-55z" />
    <glyph glyph-name="Wdieresis" unicode="&#x1e84;" horiz-adv-x="519" 
d="M504 700l-86 -700h-61l-98 348l-97 -348h-61l-86 700h111l38 -349l64 238h63l64 -238l38 349h111zM148.5 750.5q14.5 -14.5 34.5 -14.5t34.5 14.5t14.5 34.5q0 21 -14.5 35.5t-34.5 14.5t-34.5 -14.5t-14.5 -35.5q0 -20 14.5 -34.5zM300.5 750.5q14.5 -14.5 34.5 -14.5
t34.5 14.5t14.5 34.5q0 21 -14.5 35.5t-34.5 14.5t-34.5 -14.5t-14.5 -35.5q0 -20 14.5 -34.5z" />
    <glyph glyph-name="Wgrave" unicode="&#x1e80;" horiz-adv-x="519" 
d="M504 700l-86 -700h-61l-98 348l-97 -348h-61l-86 700h111l38 -349l64 238h63l64 -238l38 349h111zM287 737l-55 110h-110l110 -110h55z" />
    <glyph glyph-name="X" unicode="X" horiz-adv-x="419" 
d="M287 0l-78 207l-77 -207h-117l130 349l-130 351h117l77 -207l77 207h118l-131 -351l131 -349h-117z" />
    <glyph glyph-name="Y" unicode="Y" horiz-adv-x="392" 
d="M251 246v-246h-111v246l-135 454h116l74 -251l76 251h116z" />
    <glyph glyph-name="Yacute" unicode="&#xdd;" horiz-adv-x="392" 
d="M251 246v-246h-111v246l-135 454h116l74 -251l76 251h116zM313 847h-110l-55 -110h55z" />
    <glyph glyph-name="Ycircumflex" unicode="&#x176;" horiz-adv-x="392" 
d="M251 246v-246h-111v246l-135 454h116l74 -251l76 251h116zM251 737l-55 55l-55 -55h-56l56 110h110l55 -110h-55z" />
    <glyph glyph-name="Ydieresis" unicode="&#x178;" horiz-adv-x="392" 
d="M251 246v-246h-111v246l-135 454h116l74 -251l76 251h116zM85.5 750.5q14.5 -14.5 34.5 -14.5t34.5 14.5t14.5 34.5q0 21 -14.5 35.5t-34.5 14.5t-34.5 -14.5t-14.5 -35.5q0 -20 14.5 -34.5zM237.5 750.5q14.5 -14.5 34.5 -14.5t34.5 14.5t14.5 34.5q0 21 -14.5 35.5
t-34.5 14.5t-34.5 -14.5t-14.5 -35.5q0 -20 14.5 -34.5z" />
    <glyph glyph-name="Ygrave" unicode="&#x1ef2;" horiz-adv-x="392" 
d="M251 246v-246h-111v246l-135 454h116l74 -251l76 251h116zM224 737l-55 110h-110l110 -110h55z" />
    <glyph glyph-name="Z" unicode="Z" horiz-adv-x="383" 
d="M358 111h-182l182 589h-333v-111h182l-182 -589h333v111z" />
    <glyph glyph-name="a" unicode="a" 
d="M271 111h-126l-20 -111h-112l140 700h110l140 -700h-112zM252 221l-44 251l-44 -251h88z" />
    <glyph glyph-name="aacute" unicode="&#xe1;" 
d="M271 111h-126l-20 -111h-112l140 700h110l140 -700h-112zM252 221l-44 251l-44 -251h88zM350 847h-110l-55 -110h55z" />
    <glyph glyph-name="acircumflex" unicode="&#xe2;" 
d="M271 111h-126l-20 -111h-112l140 700h110l140 -700h-112zM252 221l-44 251l-44 -251h88zM263 737l-55 55l-55 -55h-56l56 110h110l55 -110h-55z" />
    <glyph glyph-name="adieresis" unicode="&#xe4;" 
d="M271 111h-126l-20 -111h-112l140 700h110l140 -700h-112zM252 221l-44 251l-44 -251h88zM97.5 750.5q14.5 -14.5 34.5 -14.5t34.5 14.5t14.5 34.5q0 21 -14.5 35.5t-34.5 14.5t-34.5 -14.5t-14.5 -35.5q0 -20 14.5 -34.5zM249.5 750.5q14.5 -14.5 34.5 -14.5t34.5 14.5
t14.5 34.5q0 21 -14.5 35.5t-34.5 14.5t-34.5 -14.5t-14.5 -35.5q0 -20 14.5 -34.5z" />
    <glyph glyph-name="agrave" unicode="&#xe0;" 
d="M271 111h-126l-20 -111h-112l140 700h110l140 -700h-112zM252 221l-44 251l-44 -251h88zM241 737l-55 110h-110l110 -110h55z" />
    <glyph glyph-name="aring" unicode="&#xe5;" 
d="M271 111h-126l-20 -111h-112l140 700h110l140 -700h-112zM252 221l-44 251l-44 -251h88zM257 760.5q20 20.5 20 48.5q0 29 -20 49.5t-49 20.5t-49.5 -20.5t-20.5 -49.5t20.5 -49t49.5 -20t49 20.5zM218 819.5q4 -4.5 4 -10.5t-4 -10t-10 -4t-10.5 4t-4.5 10t4.5 10.5
t10.5 4.5t10 -4.5z" />
    <glyph glyph-name="atilde" unicode="&#xe3;" 
d="M271 111h-126l-20 -111h-112l140 700h110l140 -700h-112zM252 221l-44 251l-44 -251h88zM157 767q15 4 39 -11q31 -21 60 -21q26 0 46.5 15.5t38.5 40.5l-45 32q-20 -27 -35 -32q-14 -3 -35 11q-33 21 -62 21q-7 0 -19 -2q-36 -9 -70 -53l44 -33q21 29 38 32z" />
    <glyph glyph-name="ae" unicode="&#xe6;" horiz-adv-x="575" 
d="M168 700h379v-110h-180v-176h124v-110h-124v-194h180v-110h-290v110h-111l-25 -110h-113zM257 591l-85 -371h85v371z" />
    <glyph glyph-name="b" unicode="b" horiz-adv-x="398" 
d="M321 39q26 23 38 56q13 30 13 73v64q0 87 -55 126q40 37 40 108v65q0 42 -13 74q-12 33 -38 56q-44 39 -115 39h-151v-700h166q72 0 115 39zM150 294h56q28 0 41 -12q15 -14 15 -50v-64q0 -34 -14 -47q-12 -11 -42 -11h-56v184zM150 590h41q30 0 42 -11q14 -14 14 -48
v-65q0 -35 -15 -50q-13 -12 -41 -12h-41v186z" />
    <glyph glyph-name="c" unicode="c" horiz-adv-x="390" 
d="M313 33q50 48 50 131v90h-110v-90q0 -37 -14 -50q-13 -12 -42 -12q-28 0 -41 12q-15 14 -15 50v372q0 36 15 50q13 12 41 12q29 0 42 -12q14 -13 14 -50v-62h110v62q0 83 -50 131q-44 41 -116 41q-70 0 -116 -41q-50 -50 -50 -131v-372q0 -81 50 -131q46 -41 116 -41
q72 0 116 41z" />
    <glyph glyph-name="ccedilla" unicode="&#xe7;" horiz-adv-x="390" 
d="M253 475v62q0 37 -14 50q-13 12 -42 12q-28 0 -41 -12q-15 -14 -15 -50v-372q0 -36 15 -50q13 -12 41 -12q29 0 42 12q14 13 14 50v90h110v-90q0 -83 -50 -131q-34 -33 -90 -39v-1q0 -4 5 -8q16 -11 26 -25t10 -38q0 -29 -20 -49t-49 -20q-28 0 -48.5 20t-20.5 49h55
q0 -6 4 -10t10 -4t10 4t4 10t-2.5 9t-10.5 9q-28 20 -28 53v1q-51 7 -87 39q-50 50 -50 131v372q0 81 50 131q46 41 116 41q72 0 116 -41q50 -48 50 -131v-62h-110z" />
    <glyph glyph-name="d" unicode="d" horiz-adv-x="403" 
d="M321 39q25 22 39 56q12 32 12 73v360q0 84 -50 130q-45 42 -116 42h-166v-700h166q72 0 115 39zM150 590h56q28 0 41 -12q15 -15 15 -50v-360q0 -35 -14 -47q-12 -11 -42 -11h-56v480z" />
    <glyph glyph-name="eth" unicode="&#xf0;" horiz-adv-x="415" 
d="M384 528v-360q0 -41 -12 -73q-14 -34 -39 -56q-43 -39 -115 -39h-166v294h-46v110h46v296h166q71 0 116 -42q50 -46 50 -130zM274 528q0 35 -15 50q-13 12 -41 12h-56v-186h47v-110h-47v-184h56q30 0 42 11q14 12 14 47v360z" />
    <glyph glyph-name="e" unicode="e" horiz-adv-x="358" 
d="M150 590v-176h124v-110h-124v-194h180v-110h-290v700h290v-110h-180z" />
    <glyph glyph-name="eacute" unicode="&#xe9;" horiz-adv-x="358" 
d="M150 590v-176h124v-110h-124v-194h180v-110h-290v700h290v-110h-180zM322 847h-110l-55 -110h55z" />
    <glyph glyph-name="ecircumflex" unicode="&#xea;" horiz-adv-x="358" 
d="M150 590v-176h124v-110h-124v-194h180v-110h-290v700h290v-110h-180zM246 737l-55 55l-55 -55h-56l56 110h110l55 -110h-55z" />
    <glyph glyph-name="edieresis" unicode="&#xeb;" horiz-adv-x="358" 
d="M150 590v-176h124v-110h-124v-194h180v-110h-290v700h290v-110h-180zM74.5 750.5q14.5 -14.5 34.5 -14.5t34.5 14.5t14.5 34.5q0 21 -14.5 35.5t-34.5 14.5t-34.5 -14.5t-14.5 -35.5q0 -20 14.5 -34.5zM226.5 750.5q14.5 -14.5 34.5 -14.5t34.5 14.5t14.5 34.5
q0 21 -14.5 35.5t-34.5 14.5t-34.5 -14.5t-14.5 -35.5q0 -20 14.5 -34.5z" />
    <glyph glyph-name="egrave" unicode="&#xe8;" horiz-adv-x="358" 
d="M150 590v-176h124v-110h-124v-194h180v-110h-290v700h290v-110h-180zM213 737l-55 110h-110l110 -110h55z" />
    <glyph glyph-name="f" unicode="f" horiz-adv-x="344" 
d="M150 590v-176h125v-110h-125v-304h-110v700h290v-110h-180z" />
    <glyph glyph-name="g" unicode="g" horiz-adv-x="395" 
d="M313 33q50 48 50 131v241h-165v-110h55v-131q0 -37 -14 -50q-13 -12 -42 -12q-28 0 -41 12q-15 14 -15 50v372q0 36 15 50q13 12 41 12q29 0 42 -12q14 -13 14 -50v-62h110v62q0 83 -50 131q-44 41 -116 41q-70 0 -116 -41q-50 -50 -50 -131v-372q0 -81 50 -131
q46 -41 116 -41q72 0 116 41z" />
    <glyph glyph-name="h" unicode="h" horiz-adv-x="412" 
d="M372 700v-700h-110v304h-112v-304h-110v700h110v-286h112v286h110z" />
    <glyph glyph-name="i" unicode="i" horiz-adv-x="190" 
d="M150 700h-110v-700h110v700z" />
    <glyph glyph-name="iacute" unicode="&#xed;" horiz-adv-x="190" 
d="M150 700h-110v-700h110v700zM232 847h-110l-55 -110h55z" />
    <glyph glyph-name="icircumflex" unicode="&#xee;" horiz-adv-x="189" 
d="M150 700h-110v-700h110v700zM150 737l-55 55l-55 -55h-56l56 110h110l55 -110h-55z" />
    <glyph glyph-name="idieresis" unicode="&#xef;" horiz-adv-x="190" 
d="M150 700h-110v-700h110v700zM-15.5 750.5q14.5 -14.5 34.5 -14.5t34.5 14.5t14.5 34.5q0 21 -14.5 35.5t-34.5 14.5t-34.5 -14.5t-14.5 -35.5q0 -20 14.5 -34.5zM136.5 750.5q14.5 -14.5 34.5 -14.5t34.5 14.5t14.5 34.5q0 21 -14.5 35.5t-34.5 14.5t-34.5 -14.5
t-14.5 -35.5q0 -20 14.5 -34.5z" />
    <glyph glyph-name="igrave" unicode="&#xec;" horiz-adv-x="190" 
d="M150 700h-110v-700h110v700zM123 737l-55 110h-110l110 -110h55z" />
    <glyph glyph-name="j" unicode="j" horiz-adv-x="382" 
d="M297 33q50 50 50 131v536h-110v-536q0 -36 -15 -50q-13 -12 -41 -12q-29 0 -42 12q-14 13 -14 50v87h-110v-87q0 -83 50 -131q44 -41 116 -41q70 0 116 41z" />
    <glyph glyph-name="k" unicode="k" horiz-adv-x="404" 
d="M391 0h-118l-85 224l-38 -87v-137h-110v700h110v-284l122 284h119l-141 -332z" />
    <glyph glyph-name="l" unicode="l" horiz-adv-x="343" 
d="M330 110h-180v590h-110v-700h290v110z" />
    <glyph glyph-name="m" unicode="m" horiz-adv-x="542" 
d="M502 700v-700h-110v349l-89 -239h-64l-89 239v-349h-110v700h63l168 -388l168 388h63z" />
    <glyph glyph-name="n" unicode="n" horiz-adv-x="414" 
d="M378 0h-64l-168 355v-355h-110v700h64l168 -354v354h110v-700z" />
    <glyph glyph-name="ntilde" unicode="&#xf1;" horiz-adv-x="414" 
d="M378 0h-64l-168 355v-355h-110v700h64l168 -354v354h110v-700zM156 767q15 4 39 -11q31 -21 60 -21q26 0 46.5 15.5t38.5 40.5l-45 32q-20 -27 -35 -32q-14 -3 -35 11q-33 21 -62 21q-7 0 -19 -2q-36 -9 -70 -53l44 -33q21 29 38 32z" />
    <glyph glyph-name="o" unicode="o" horiz-adv-x="394" 
d="M313 33q50 48 50 131v372q0 83 -50 131q-44 41 -116 41t-116 -41q-50 -48 -50 -131v-372q0 -83 50 -131q44 -41 116 -41t116 41zM238 586q15 -13 15 -50v-372q0 -37 -15 -50q-12 -12 -41 -12q-28 0 -41 12q-15 14 -15 50v372q0 36 15 50q13 12 41 12q29 0 41 -12z" />
    <glyph glyph-name="oacute" unicode="&#xf3;" horiz-adv-x="394" 
d="M313 33q50 48 50 131v372q0 83 -50 131q-44 41 -116 41t-116 -41q-50 -48 -50 -131v-372q0 -83 50 -131q44 -41 116 -41t116 41zM238 586q15 -13 15 -50v-372q0 -37 -15 -50q-12 -12 -41 -12q-28 0 -41 12q-15 14 -15 50v372q0 36 15 50q13 12 41 12q29 0 41 -12z
M334 847h-110l-55 -110h55z" />
    <glyph glyph-name="ocircumflex" unicode="&#xf4;" horiz-adv-x="394" 
d="M148 848h99l89 -111h-94l-45 55l-44 -55h-94zM313 33q50 48 50 131v372q0 83 -50 131q-44 41 -116 41t-116 -41q-50 -48 -50 -131v-372q0 -83 50 -131q44 -41 116 -41t116 41zM238 586q15 -13 15 -50v-372q0 -37 -15 -50q-12 -12 -41 -12q-28 0 -41 12q-15 14 -15 50v372
q0 36 15 50q13 12 41 12q29 0 41 -12z" />
    <glyph glyph-name="odieresis" unicode="&#xf6;" horiz-adv-x="394" 
d="M313 33q50 48 50 131v372q0 83 -50 131q-44 41 -116 41t-116 -41q-50 -48 -50 -131v-372q0 -83 50 -131q44 -41 116 -41t116 41zM238 586q15 -13 15 -50v-372q0 -37 -15 -50q-12 -12 -41 -12q-28 0 -41 12q-15 14 -15 50v372q0 36 15 50q13 12 41 12q29 0 41 -12z
M86.5 750.5q14.5 -14.5 34.5 -14.5t34.5 14.5t14.5 34.5q0 21 -14.5 35.5t-34.5 14.5t-34.5 -14.5t-14.5 -35.5q0 -20 14.5 -34.5zM238.5 750.5q14.5 -14.5 34.5 -14.5t34.5 14.5t14.5 34.5q0 21 -14.5 35.5t-34.5 14.5t-34.5 -14.5t-14.5 -35.5q0 -20 14.5 -34.5z" />
    <glyph glyph-name="ograve" unicode="&#xf2;" horiz-adv-x="394" 
d="M313 33q50 48 50 131v372q0 83 -50 131q-44 41 -116 41t-116 -41q-50 -48 -50 -131v-372q0 -83 50 -131q44 -41 116 -41t116 41zM238 586q15 -13 15 -50v-372q0 -37 -15 -50q-12 -12 -41 -12q-28 0 -41 12q-15 14 -15 50v372q0 36 15 50q13 12 41 12q29 0 41 -12z
M225 737l-55 110h-110l110 -110h55z" />
    <glyph glyph-name="oslash" unicode="&#xf8;" horiz-adv-x="444" 
d="M374 614q14 -37 14 -79v-372q0 -83 -50 -131q-44 -41 -116 -41t-116 41l-25 -55l-50 23l39 85q-14 37 -14 78v372q0 83 50 131q44 41 116 41q74 0 115 -40l26 55l50 -22zM166 294l112 243q0 36 -15 48q-12 12 -41 12q-28 0 -41 -12q-15 -14 -15 -50v-241zM278 405
l-112 -243q0 -35 15 -49q13 -12 41 -12q29 0 41 12q15 13 15 50v242z" />
    <glyph glyph-name="otilde" unicode="&#xf5;" horiz-adv-x="396" 
d="M198 92q57 0 57 69v378q0 69 -57 69t-57 -69v-378q0 -69 57 -69zM74 662q43 46 124 46t124 -46t43 -130v-364q0 -84 -43 -130t-124 -46t-124 46t-43 130v364q0 84 43 130zM147 767q15 4 39 -11q31 -21 60 -21q26 0 46.5 15.5t38.5 40.5l-45 32q-20 -27 -35 -32
q-14 -3 -35 11q-33 21 -62 21q-7 0 -19 -2q-36 -9 -70 -53l44 -33q21 29 38 32z" />
    <glyph glyph-name="oe" unicode="&#x153;" horiz-adv-x="572" 
d="M364 590v-176h124v-110h-124v-194h180v-110h-347q-70 0 -116 41q-50 48 -50 131v356q0 84 50 130q47 42 116 42h347v-110h-180zM253 590h-56q-28 0 -41 -12q-15 -15 -15 -50v-356q0 -36 15 -50q13 -12 41 -12h56v480z" />
    <glyph glyph-name="p" unicode="p" horiz-adv-x="392" 
d="M150 280h56q72 0 116 41q50 46 50 131v76q0 84 -50 130q-45 42 -116 42h-166v-700h110v280zM150 590h56q28 0 41 -12q15 -15 15 -50v-76q0 -36 -15 -50q-13 -12 -41 -12h-56v200z" />
    <glyph glyph-name="q" unicode="q" horiz-adv-x="401" 
d="M378 -22v-110h-14q-70 0 -116 41q-34 32 -45 83h-6q-34 0 -64 11t-52 31q-50 46 -50 130v372q0 85 50 131q44 41 116 41t116 -41q50 -46 50 -131v-372q0 -84 -50 -130l-4 -4q2 -29 14 -40q13 -12 41 -12h14zM197 102q29 0 41 12q15 14 15 50v372q0 37 -15 50
q-12 12 -41 12q-28 0 -41 -12q-15 -14 -15 -50v-372q0 -35 15 -50q13 -12 41 -12z" />
    <glyph glyph-name="r" unicode="r" horiz-adv-x="397" 
d="M369 0h-112l-57 281h-50v-281h-110v700h166q71 0 116 -42q50 -46 50 -130v-75q0 -85 -50 -131q-7 -7 -16 -13zM262 528q0 35 -15 50q-13 12 -41 12h-56v-199h56q28 0 41 12q15 14 15 50v75z" />
    <glyph glyph-name="s" unicode="s" horiz-adv-x="380" 
d="M306 33q50 48 50 131v44q0 96 -74 162q-20 18 -72 46q-29 16 -39 24q-37 33 -37 79v17q0 36 15 50q13 12 41 12q29 0 41 -12q15 -13 15 -50v-61h110v61q0 83 -50 131q-44 41 -116 41t-116 -41q-50 -48 -50 -131v-17q0 -47 19 -88t55 -73q22 -19 69 -44q34 -19 42 -26
q37 -34 37 -80v-44q0 -37 -15 -50q-12 -12 -41 -12q-28 0 -41 12q-15 14 -15 50v91h-110v-91q0 -83 50 -131q44 -41 116 -41t116 41z" />
    <glyph glyph-name="t" unicode="t" horiz-adv-x="353" 
d="M344 590h-112v-590h-110v590h-112v110h334v-110z" />
    <glyph glyph-name="u" unicode="u" horiz-adv-x="402" 
d="M317 33q50 50 50 131v536h-110v-536q0 -36 -15 -50q-13 -12 -41 -12q-29 0 -42 12q-14 13 -14 50v536h-110v-536q0 -83 50 -131q44 -41 116 -41q70 0 116 41z" />
    <glyph glyph-name="uacute" unicode="&#xfa;" horiz-adv-x="402" 
d="M317 33q50 50 50 131v536h-110v-536q0 -36 -15 -50q-13 -12 -41 -12q-29 0 -42 12q-14 13 -14 50v536h-110v-536q0 -83 50 -131q44 -41 116 -41q70 0 116 41zM338 847h-110l-55 -110h55z" />
    <glyph glyph-name="ucircumflex" unicode="&#xfb;" horiz-adv-x="402" 
d="M317 33q50 50 50 131v536h-110v-536q0 -36 -15 -50q-13 -12 -41 -12q-29 0 -42 12q-14 13 -14 50v536h-110v-536q0 -83 50 -131q44 -41 116 -41q70 0 116 41zM256 737l-55 55l-55 -55h-56l56 110h110l55 -110h-55z" />
    <glyph glyph-name="udieresis" unicode="&#xfc;" horiz-adv-x="402" 
d="M317 33q50 50 50 131v536h-110v-536q0 -36 -15 -50q-13 -12 -41 -12q-29 0 -42 12q-14 13 -14 50v536h-110v-536q0 -83 50 -131q44 -41 116 -41q70 0 116 41zM90.5 750.5q14.5 -14.5 34.5 -14.5t34.5 14.5t14.5 34.5q0 21 -14.5 35.5t-34.5 14.5t-34.5 -14.5t-14.5 -35.5
q0 -20 14.5 -34.5zM242.5 750.5q14.5 -14.5 34.5 -14.5t34.5 14.5t14.5 34.5q0 21 -14.5 35.5t-34.5 14.5t-34.5 -14.5t-14.5 -35.5q0 -20 14.5 -34.5z" />
    <glyph glyph-name="ugrave" unicode="&#xf9;" horiz-adv-x="402" 
d="M317 33q50 50 50 131v536h-110v-536q0 -36 -15 -50q-13 -12 -41 -12q-29 0 -42 12q-14 13 -14 50v536h-110v-536q0 -83 50 -131q44 -41 116 -41q70 0 116 41zM229 737l-55 110h-110l110 -110h55z" />
    <glyph glyph-name="v" unicode="v" horiz-adv-x="412" 
d="M289 700h112l-140 -700h-110l-140 700h112l83 -473z" />
    <glyph glyph-name="w" unicode="w" horiz-adv-x="519" 
d="M504 700l-86 -700h-61l-98 348l-97 -348h-61l-86 700h111l38 -349l64 238h63l64 -238l38 349h111z" />
    <glyph glyph-name="wacute" unicode="&#x1e83;" horiz-adv-x="519" 
d="M504 700l-86 -700h-61l-98 348l-97 -348h-61l-86 700h111l38 -349l64 238h63l64 -238l38 349h111zM397 847h-110l-55 -110h55z" />
    <glyph glyph-name="wcircumflex" unicode="&#x175;" horiz-adv-x="519" 
d="M504 700l-86 -700h-61l-98 348l-97 -348h-61l-86 700h111l38 -349l64 238h63l64 -238l38 349h111zM314 737l-55 55l-55 -55h-56l56 110h110l55 -110h-55z" />
    <glyph glyph-name="wdieresis" unicode="&#x1e85;" horiz-adv-x="519" 
d="M504 700l-86 -700h-61l-98 348l-97 -348h-61l-86 700h111l38 -349l64 238h63l64 -238l38 349h111zM148.5 750.5q14.5 -14.5 34.5 -14.5t34.5 14.5t14.5 34.5q0 21 -14.5 35.5t-34.5 14.5t-34.5 -14.5t-14.5 -35.5q0 -20 14.5 -34.5zM300.5 750.5q14.5 -14.5 34.5 -14.5
t34.5 14.5t14.5 34.5q0 21 -14.5 35.5t-34.5 14.5t-34.5 -14.5t-14.5 -35.5q0 -20 14.5 -34.5z" />
    <glyph glyph-name="wgrave" unicode="&#x1e81;" horiz-adv-x="519" 
d="M504 700l-86 -700h-61l-98 348l-97 -348h-61l-86 700h111l38 -349l64 238h63l64 -238l38 349h111zM287 737l-55 110h-110l110 -110h55z" />
    <glyph glyph-name="x" unicode="x" horiz-adv-x="419" 
d="M287 0l-78 207l-77 -207h-117l130 349l-130 351h117l77 -207l77 207h118l-131 -351l131 -349h-117z" />
    <glyph glyph-name="y" unicode="y" horiz-adv-x="392" 
d="M251 246v-246h-111v246l-135 454h116l74 -251l76 251h116z" />
    <glyph glyph-name="yacute" unicode="&#xfd;" horiz-adv-x="392" 
d="M251 246v-246h-111v246l-135 454h116l74 -251l76 251h116zM313 847h-110l-55 -110h55z" />
    <glyph glyph-name="ycircumflex" unicode="&#x177;" horiz-adv-x="392" 
d="M251 246v-246h-111v246l-135 454h116l74 -251l76 251h116zM251 737l-55 55l-55 -55h-56l56 110h110l55 -110h-55z" />
    <glyph glyph-name="ydieresis" unicode="&#xff;" horiz-adv-x="392" 
d="M251 246v-246h-111v246l-135 454h116l74 -251l76 251h116zM85.5 750.5q14.5 -14.5 34.5 -14.5t34.5 14.5t14.5 34.5q0 21 -14.5 35.5t-34.5 14.5t-34.5 -14.5t-14.5 -35.5q0 -20 14.5 -34.5zM237.5 750.5q14.5 -14.5 34.5 -14.5t34.5 14.5t14.5 34.5q0 21 -14.5 35.5
t-34.5 14.5t-34.5 -14.5t-14.5 -35.5q0 -20 14.5 -34.5z" />
    <glyph glyph-name="ygrave" unicode="&#x1ef3;" horiz-adv-x="392" 
d="M251 246v-246h-111v246l-135 454h116l74 -251l76 251h116zM224 737l-55 110h-110l110 -110h55z" />
    <glyph glyph-name="z" unicode="z" horiz-adv-x="383" 
d="M358 111h-182l182 589h-333v-111h182l-182 -589h333v111z" />
    <glyph glyph-name="zero" unicode="0" horiz-adv-x="394" 
d="M313 33q50 48 50 131v372q0 83 -50 131q-44 41 -116 41t-116 -41q-50 -48 -50 -131v-372q0 -83 50 -131q44 -41 116 -41t116 41zM238 586q15 -13 15 -50v-372q0 -37 -15 -50q-12 -12 -41 -12q-28 0 -41 12q-15 14 -15 50v372q0 36 15 50q13 12 41 12q29 0 41 -12z" />
    <glyph glyph-name="one" unicode="1" horiz-adv-x="292" 
d="M189 700h63v-700h-110v508l-112 -102v149z" />
    <glyph glyph-name="two" unicode="2" horiz-adv-x="397" 
d="M366 0v110h-223v86q0 46 35 78q11 10 23.5 17t24.5 13q19 9 33.5 18t31.5 24q36 32 55 73t19 87v30q0 85 -50 131q-44 41 -116 41t-116 -41q-50 -46 -50 -131v-61h110v61q0 36 15 50q13 12 41 12q29 0 41 -12q15 -13 15 -50v-30q0 -43 -34 -76q-10 -8 -43 -26
q-6 -3 -30.5 -17.5t-40.5 -28.5q-74 -66 -74 -162v-196h333z" />
    <glyph glyph-name="three" unicode="3" horiz-adv-x="385" 
d="M291 364q68 -63 68 -156v-45q0 -83 -50 -131q-44 -41 -116 -41t-116 41q-50 48 -50 131v47h110v-47q0 -36 15 -50q13 -12 41 -12q29 0 41 12q15 13 15 50v45q0 46 -37 80q-12 11 -24 17.5t-15 7.5l-36 14v75l36 13q24 12 41 28q35 32 35 78v14q0 37 -15 50q-12 12 -41 12
q-28 0 -41 -12q-15 -14 -15 -50v-18h-110v18q0 83 50 131q44 41 116 41t116 -41q50 -48 50 -131v-14q0 -92 -68 -157z" />
    <glyph glyph-name="four" unicode="4" horiz-adv-x="432" 
d="M373 700v-482h29v-110h-29v-108h-110v108h-243v62l244 530h109zM263 469l-100 -251h100v251z" />
    <glyph glyph-name="five" unicode="5" horiz-adv-x="388" 
d="M312 32q50 48 50 131v59q0 95 -74 161q-21 19 -41.5 30t-30.5 14q-1 1 -12.5 7t-26.5 19q-37 33 -37 80v57h223v110h-333v-167q0 -47 19 -88.5t55 -73.5q22 -20 43.5 -32t28.5 -14h1q3 -1 14.5 -7.5t23.5 -17.5q37 -31 37 -78v-59q0 -37 -15 -50q-12 -12 -41 -12
q-28 0 -41 12q-15 14 -15 50v62h-110v-62q0 -83 50 -131q44 -41 116 -41t116 41z" />
    <glyph glyph-name="six" unicode="6" horiz-adv-x="389" 
d="M253 482v54q0 37 -15 50q-12 12 -41 12q-28 0 -41 -12q-15 -14 -15 -50v-124q24 7 56 7q72 0 116 -41q50 -46 50 -131v-83q0 -83 -50 -131q-44 -41 -116 -41t-116 41q-50 48 -50 131v83v289q0 83 50 131q44 41 116 41t116 -41q50 -48 50 -131v-54h-110zM141 247v-83
q0 -36 15 -50q13 -12 41 -12q29 0 41 12q15 13 15 50v83q0 37 -15 50q-12 12 -41 12q-28 0 -41 -12q-15 -14 -15 -50z" />
    <glyph glyph-name="seven" unicode="7" horiz-adv-x="357" 
d="M183 0h-113l138 590h-193v110h332z" />
    <glyph glyph-name="eight" unicode="8" horiz-adv-x="384" 
d="M308 33q50 48 50 131v43q0 45 -17.5 85.5t-51.5 71.5q69 66 69 158v14q0 83 -50 131q-44 41 -116 41t-116 -41q-50 -48 -50 -131v-18q0 -90 66 -154q-66 -63 -66 -153v-47q0 -83 50 -131q44 -41 116 -41t116 41zM213 285q35 -32 35 -78v-43q0 -36 -15 -50
q-13 -12 -41 -12t-41 12q-15 14 -15 50v47q0 45 34 76q9 7 20 15q10 -6 23 -17zM233 586q15 -14 15 -50v-14q0 -46 -35 -78q-10 -9 -23 -18q-11 7 -20 15q-34 33 -34 77v18q0 36 15 50q13 12 41 12t41 -12z" />
    <glyph glyph-name="nine" unicode="9" horiz-adv-x="389" 
d="M136 218v-55q0 -36 15 -50q13 -12 41 -12q29 0 41 12q15 13 15 50v124q-24 -7 -56 -7q-72 0 -116 41q-50 46 -50 131v83q0 83 50 131q44 41 116 41t116 -41q50 -48 50 -131v-83v-289q0 -83 -50 -131q-44 -41 -116 -41t-116 41q-50 48 -50 131v55h110zM248 452v83
q0 37 -15 50q-12 12 -41 12q-28 0 -41 -12q-15 -14 -15 -50v-83q0 -36 15 -50q13 -12 41 -12q29 0 41 12q15 13 15 50z" />
    <glyph glyph-name="asterisk" unicode="*" horiz-adv-x="366" 
d="M244 545l87 -41l-65 -89l-66 70l-12 -96l-104 34l46 85l-95 -18v110l95 -18l-46 84l104 34l12 -95l66 70l65 -89z" />
    <glyph glyph-name="backslash" unicode="\" horiz-adv-x="381" 
d="M281 0l-276 700h95l276 -700h-95z" />
    <glyph glyph-name="periodcentered" unicode="&#xb7;" horiz-adv-x="192" 
d="M135.5 398.5q-16.5 16.5 -39.5 16.5t-39.5 -16.5t-16.5 -39.5t16.5 -39.5t39.5 -16.5t39.5 16.5t16.5 39.5t-16.5 39.5z" />
    <glyph glyph-name="bullet" unicode="&#x2022;" horiz-adv-x="378" 
d="M68.5 420q18.5 32 50.5 50.5t70 18.5t70 -18.5t50.5 -50.5t18.5 -70t-18.5 -70t-50.5 -50.5t-70 -18.5t-70 18.5t-50.5 50.5t-18.5 70t18.5 70z" />
    <glyph glyph-name="colon" unicode=":" horiz-adv-x="182" 
d="M130.5 92.5q-16.5 16.5 -39.5 16.5t-39.5 -16.5t-16.5 -39.5t16.5 -39.5t39.5 -16.5t39.5 16.5t16.5 39.5t-16.5 39.5zM130.5 473.5q-16.5 16.5 -39.5 16.5t-39.5 -16.5t-16.5 -39.5t16.5 -39.5t39.5 -16.5t39.5 16.5t16.5 39.5t-16.5 39.5z" />
    <glyph glyph-name="comma" unicode="," horiz-adv-x="182" 
d="M130.5 95.5q16.5 -16.5 16.5 -39.5q0 -22 -16 -52q-11 -21 -30.5 -50.5t-26.5 -38.5h-32q2 6 8.5 23.5t14.5 36.5q3 6 3 15q0 10 -8 18q-25 20 -25 48q0 23 16.5 39.5t39.5 16.5t39.5 -16.5z" />
    <glyph glyph-name="ellipsis" unicode="&#x2026;" horiz-adv-x="494" 
d="M130.5 92.5q-16.5 16.5 -39.5 16.5t-39.5 -16.5t-16.5 -39.5t16.5 -39.5t39.5 -16.5t39.5 16.5t16.5 39.5t-16.5 39.5zM286.5 92.5q-16.5 16.5 -39.5 16.5t-39.5 -16.5t-16.5 -39.5t16.5 -39.5t39.5 -16.5t39.5 16.5t16.5 39.5t-16.5 39.5zM442.5 92.5
q-16.5 16.5 -39.5 16.5t-39.5 -16.5t-16.5 -39.5t16.5 -39.5t39.5 -16.5t39.5 16.5t16.5 39.5t-16.5 39.5z" />
    <glyph glyph-name="exclam" unicode="!" horiz-adv-x="192" 
d="M135.5 95.5q-16.5 16.5 -39.5 16.5t-39.5 -16.5t-16.5 -39.5t16.5 -39.5t39.5 -16.5t39.5 16.5t16.5 39.5t-16.5 39.5zM151 349v351h-110v-351l14 -188h81z" />
    <glyph glyph-name="exclamdown" unicode="&#xa1;" horiz-adv-x="192" 
d="M135.5 683.5q-16.5 16.5 -39.5 16.5t-39.5 -16.5t-16.5 -39.5t16.5 -39.5t39.5 -16.5t39.5 16.5t16.5 39.5t-16.5 39.5zM55 539l-14 -188v-351h110v351l-15 188h-81z" />
    <glyph glyph-name="numbersign" unicode="#" horiz-adv-x="460" 
d="M179 200l-21 -200h-90l21 200h-49l8 78h49l19 183h-50l8 78h50l17 161h90l-17 -161h65l17 161h90l-17 -161h51l-8 -78h-51l-19 -183h51l-8 -78h-51l-21 -200h-90l21 200h-65zM252 278l19 183h-65l-19 -183h65z" />
    <glyph glyph-name="period" unicode="." horiz-adv-x="182" 
d="M130.5 92.5q-16.5 16.5 -39.5 16.5t-39.5 -16.5t-16.5 -39.5t16.5 -39.5t39.5 -16.5t39.5 16.5t16.5 39.5t-16.5 39.5z" />
    <glyph glyph-name="question" unicode="?" horiz-adv-x="392" 
d="M183.5 95.5q-16.5 16.5 -39.5 16.5t-39.5 -16.5t-16.5 -39.5t16.5 -39.5t39.5 -16.5t39.5 16.5t16.5 39.5t-16.5 39.5zM89 165v34q0 50 14.5 90.5t49.5 71.5q43 38 61 56.5t28 40.5t10 52v27q0 36 -15 50q-13 12 -41 12q-29 0 -41 -12q-15 -13 -15 -50v-61h-110v61
q0 83 50 131q44 41 116 41t116 -41q50 -48 50 -131v-27q0 -105 -64 -161q-43 -38 -61 -56.5t-28 -40.5t-10 -53v-34h-110z" />
    <glyph glyph-name="questiondown" unicode="&#xbf;" horiz-adv-x="393" 
d="M208.5 604q16.5 -17 39.5 -17q24 0 40.5 17t16.5 40t-16.5 39.5t-40.5 16.5q-23 0 -39.5 -16.5t-16.5 -39.5t16.5 -40zM303 535v-34q0 -50 -14.5 -90.5t-49.5 -71.5q-43 -38 -61 -56.5t-28 -40.5t-10 -52l1 -27q0 -36 15 -50q13 -12 41 -12q29 0 41 12q15 13 15 50l-1 61
h110l1 -61q0 -83 -50 -131q-44 -41 -116 -41t-116 41q-50 48 -50 131l-1 27q0 105 64 161q43 38 61 56.5t28 40.5t10 53v34h110z" />
    <glyph glyph-name="quotedbl" unicode="&#x22;" horiz-adv-x="329" 
d="M150 700h-110l24 -197h62zM289 700h-110l24 -197h62z" />
    <glyph glyph-name="quotesingle" unicode="'" horiz-adv-x="190" 
d="M150 700h-110l24 -197h62z" />
    <glyph glyph-name="semicolon" unicode=";" horiz-adv-x="182" 
d="M130.5 92.5q16.5 -16.5 16.5 -39.5q0 -22 -16 -52q-11 -21 -30.5 -50.5t-26.5 -38.5h-32q2 6 8.5 23.5t14.5 36.5q3 6 3 15q0 10 -8 18q-25 20 -25 48q0 23 16.5 39.5t39.5 16.5t39.5 -16.5zM130.5 473.5q-16.5 16.5 -39.5 16.5t-39.5 -16.5t-16.5 -39.5t16.5 -39.5
t39.5 -16.5t39.5 16.5t16.5 39.5t-16.5 39.5z" />
    <glyph glyph-name="slash" unicode="/" horiz-adv-x="381" 
d="M376 700l-276 -700h-95l276 700h95z" />
    <glyph glyph-name="underscore" unicode="_" horiz-adv-x="520" 
d="M510 110v-110h-500v110h500z" />
    <glyph glyph-name="braceleft" unicode="{" horiz-adv-x="314" 
d="M284 103q-28 0 -41 12q-15 14 -15 50v53q0 62 -31 112l-15 21l15 21q31 50 31 112v53q0 36 15 50q13 12 41 12v110q-72 0 -116 -41q-50 -48 -50 -131v-53q0 -53 -48 -89l-59 -44l59 -44q48 -36 48 -89v-53q0 -83 50 -131q44 -41 116 -41v110z" />
    <glyph glyph-name="braceright" unicode="}" horiz-adv-x="314" 
d="M146 34q50 48 50 131v53q0 53 48 89l59 44l-59 44q-48 36 -48 89v53q0 83 -50 131q-44 41 -116 41v-110q28 0 41 -12q15 -14 15 -50v-53q0 -62 31 -112l15 -21l-15 -21q-31 -50 -31 -112v-53q0 -36 -15 -50q-13 -12 -41 -12v-110q72 0 116 41z" />
    <glyph glyph-name="bracketleft" unicode="[" horiz-adv-x="236" 
d="M206 110h-56v480h56v110h-166v-700h166v110z" />
    <glyph glyph-name="bracketright" unicode="]" horiz-adv-x="236" 
d="M196 0v700h-166v-110h56v-480h-56v-110h166z" />
    <glyph glyph-name="parenleft" unicode="(" horiz-adv-x="237" 
d="M207 102q-28 0 -41 12q-15 14 -15 50v373q0 36 15 50q13 12 41 12v110q-72 0 -116 -41q-50 -48 -50 -131v-373q0 -83 50 -131q44 -41 116 -41v110z" />
    <glyph glyph-name="parenright" unicode=")" horiz-adv-x="237" 
d="M146 33q50 48 50 131v373q0 83 -50 131q-44 41 -116 41v-110q28 0 41 -12q15 -14 15 -50v-373q0 -36 -15 -50q-13 -12 -41 -12v-110q72 0 116 41z" />
    <glyph glyph-name="emdash" unicode="&#x2014;" horiz-adv-x="600" 
d="M590 414v-110h-580v110h580z" />
    <glyph glyph-name="endash" unicode="&#x2013;" horiz-adv-x="600" 
d="M590 414v-110h-580v110h580z" />
    <glyph glyph-name="figuredash" unicode="&#x2012;" horiz-adv-x="311" 
d="M301 414h-291v-111h291v111z" />
    <glyph glyph-name="hyphen" unicode="-" horiz-adv-x="200" 
d="M190 414v-110h-180v110h180z" />
    <glyph glyph-name="guillemotleft" unicode="&#xab;" horiz-adv-x="378" 
d="M302 359l60 -267h-113l-59 267l59 267h113zM128 359l60 -267h-113l-59 267l59 267h113z" />
    <glyph glyph-name="guillemotright" unicode="&#xbb;" horiz-adv-x="378" 
d="M129 626l59 -267l-59 -267h-113l60 267l-60 267h113zM303 626l59 -267l-59 -267h-113l60 267l-60 267h113z" />
    <glyph glyph-name="guilsinglleft" unicode="&#x2039;" horiz-adv-x="204" 
d="M128 359l60 -267h-113l-59 267l59 267h113z" />
    <glyph glyph-name="guilsinglright" unicode="&#x203a;" horiz-adv-x="204" 
d="M129 626l59 -267l-59 -267h-113l60 267l-60 267h113z" />
    <glyph glyph-name="quotedblbase" unicode="&#x201e;" horiz-adv-x="328" 
d="M130.5 92.5q16.5 -16.5 16.5 -39.5q0 -22 -16 -52q-11 -21 -30.5 -50.5t-26.5 -38.5h-32q2 6 8.5 23.5t14.5 36.5q3 6 3 15q0 10 -8 18q-25 20 -25 48q0 23 16.5 39.5t39.5 16.5t39.5 -16.5zM276.5 92.5q16.5 -16.5 16.5 -39.5q0 -22 -16 -52q-11 -21 -30.5 -50.5
t-26.5 -38.5h-32q2 6 8.5 23.5t14.5 36.5q3 6 3 15q0 10 -8 18q-25 20 -25 48q0 23 16.5 39.5t39.5 16.5t39.5 -16.5z" />
    <glyph glyph-name="quotedblleft" unicode="&#x201c;" horiz-adv-x="333" 
d="M51.5 519.5q-16.5 16.5 -16.5 39.5q0 22 16 52q11 21 30.5 50.5t26.5 38.5h32q-2 -6 -8.5 -23.5t-14.5 -36.5q-3 -6 -3 -15q0 -10 8 -18q25 -20 25 -48q0 -23 -16.5 -39.5t-39.5 -16.5t-39.5 16.5zM197.5 519.5q-16.5 16.5 -16.5 39.5q0 22 16 52q11 21 30.5 50.5
t26.5 38.5h32q-2 -6 -8.5 -23.5t-14.5 -36.5q-3 -6 -3 -15q0 -10 8 -18q25 -20 25 -48q0 -23 -16.5 -39.5t-39.5 -16.5t-39.5 16.5z" />
    <glyph glyph-name="quotedblright" unicode="&#x201d;" horiz-adv-x="333" 
d="M135.5 686.5q16.5 -16.5 16.5 -39.5q0 -22 -16 -52q-11 -21 -30.5 -50.5t-26.5 -38.5h-32q2 6 8.5 23.5t14.5 36.5q3 6 3 15q0 10 -8 18q-25 20 -25 48q0 23 16.5 39.5t39.5 16.5t39.5 -16.5zM281.5 686.5q16.5 -16.5 16.5 -39.5q0 -22 -16 -52q-11 -21 -30.5 -50.5
t-26.5 -38.5h-32q2 6 8.5 23.5t14.5 36.5q3 6 3 15q0 10 -8 18q-25 20 -25 48q0 23 16.5 39.5t39.5 16.5t39.5 -16.5z" />
    <glyph glyph-name="quoteleft" unicode="&#x2018;" horiz-adv-x="192" 
d="M56.5 519.5q-16.5 16.5 -16.5 39.5q0 22 16 52q11 21 30.5 50.5t26.5 38.5h32q-2 -6 -8.5 -23.5t-14.5 -36.5q-3 -6 -3 -15q0 -10 8 -18q25 -20 25 -48q0 -23 -16.5 -39.5t-39.5 -16.5t-39.5 16.5z" />
    <glyph glyph-name="quoteright" unicode="&#x2019;" horiz-adv-x="192" 
d="M135.5 686.5q16.5 -16.5 16.5 -39.5q0 -22 -16 -52q-11 -21 -30.5 -50.5t-26.5 -38.5h-32q2 6 8.5 23.5t14.5 36.5q3 6 3 15q0 10 -8 18q-25 20 -25 48q0 23 16.5 39.5t39.5 16.5t39.5 -16.5z" />
    <glyph glyph-name="quotesinglbase" unicode="&#x201a;" horiz-adv-x="182" 
d="M130.5 92.5q16.5 -16.5 16.5 -39.5q0 -22 -16 -52q-11 -21 -30.5 -50.5t-26.5 -38.5h-32q2 6 8.5 23.5t14.5 36.5q3 6 3 15q0 10 -8 18q-25 20 -25 48q0 23 16.5 39.5t39.5 16.5t39.5 -16.5z" />
    <glyph glyph-name="uni00A0" unicode="&#xa0;" horiz-adv-x="155" 
 />
    <glyph glyph-name="Euro" unicode="&#x20ac;" horiz-adv-x="396" 
d="M371 8q-40 -17 -82 -17q-46 0 -85.5 18.5t-67.5 53.5q-50 60 -59 166h-49v111h47v30h-47v111h49q11 102 59 161q28 35 67.5 53.5t85.5 18.5q38 0 70 -13l-39 -104q-11 5 -31 5q-34 0 -62.5 -26t-37.5 -95h131v-111h-133v-30h133v-111h-131q7 -73 36.5 -100t63.5 -27
q18 0 36 8z" />
    <glyph glyph-name="cent" unicode="&#xa2;" horiz-adv-x="410" 
d="M263 474v54q0 35 -15 50q-13 12 -41 12q-29 0 -41 -12q-15 -14 -15 -50v-356q0 -36 15 -50q12 -12 41 -12q28 0 41 12q15 15 15 50v82h110v-82q0 -83 -50 -131q-27 -24 -61 -33v-37h-110v37q-33 8 -61 33q-50 48 -50 131v356q0 83 50 131q28 25 61 33v37h110v-37
q34 -9 61 -33q50 -48 50 -131v-54h-110z" />
    <glyph glyph-name="currency" unicode="&#xa4;" horiz-adv-x="421" 
d="M345 194l44 -92l-99 -47l-39 82q-17 -4 -40 -4q-24 0 -40 4l-39 -82l-100 47l45 94q-32 43 -32 109v90q0 66 32 109l-44 94l99 47l39 -82q17 4 40 4q24 0 40 -4l39 82l99 -47l-44 -92q33 -47 33 -111v-90q0 -64 -33 -111zM211 243q29 0 42 12q15 14 15 50v90q0 36 -15 50
q-13 12 -42 12q-28 0 -41 -12q-15 -14 -15 -50v-90q0 -36 15 -50q13 -12 41 -12z" />
    <glyph glyph-name="dollar" unicode="$" horiz-adv-x="400" 
d="M256 475v53q0 37 -15 50q-12 12 -41 12q-28 0 -41 -12q-15 -14 -15 -50v-9q0 -46 37 -79q10 -8 39 -24q52 -28 72 -46q74 -66 74 -162v-36q0 -83 -50 -131q-24 -23 -61 -34v-36h-110v36q-36 11 -61 34q-50 48 -50 131v83h110v-83q0 -36 15 -50q13 -12 41 -12q29 0 41 12
q15 13 15 50v36q0 46 -37 80q-8 7 -42 26q-47 25 -69 44q-36 32 -55 73t-19 88v9q0 83 50 131q25 23 61 34v36h110v-36q37 -11 61 -34q50 -48 50 -131v-53h-110z" />
    <glyph glyph-name="sterling" unicode="&#xa3;" horiz-adv-x="446" 
d="M413 112h-181q15 38 15 88v80h110v111h-143q-23 38 -23 92v53q0 37 15 50q12 12 40 12t41 -12q15 -14 15 -50v-18h111v18q0 84 -50 132q-46 41 -117 41q-72 0 -116 -41q-51 -49 -51 -132v-53q0 -48 14 -92h-41v-111h83v-80q0 -50 -22 -71q-16 -15 -45 -17h-37v-112h382
v112z" />
    <glyph glyph-name="uni20B9" unicode="&#x20b9;" horiz-adv-x="428" 
d="M408 590h-58q5 -19 7 -44h51v-111h-51q-5 -73 -49 -113q-38 -35 -99 -41l149 -281h-125l-206 391h165q29 0 41 12q10 8 14 32h-221v111h221q-4 22 -14 32q-12 12 -41 12h-166v110h166h216v-110z" />
    <glyph glyph-name="yen" unicode="&#xa5;" horiz-adv-x="396" 
d="M262 274h80v-55h-89v-57h89v-55h-89v-107h-111v107h-90v55h90v57h-90v55h82l-127 426h116l74 -251l76 251h116z" />
    <glyph glyph-name="plus" unicode="+" horiz-adv-x="389" 
d="M354 303h-104v-104h-111v104h-104v111h104v105h111v-105h104v-111z" />
    <glyph glyph-name="minus" unicode="&#x2212;" horiz-adv-x="361" 
d="M326 414h-291v-111h291v111z" />
    <glyph glyph-name="multiply" unicode="&#xd7;" horiz-adv-x="375" 
d="M267 359l73 -73l-79 -79l-73 74l-74 -74l-79 79l74 73l-74 74l79 79l74 -74l73 74l79 -79z" />
    <glyph glyph-name="divide" unicode="&#xf7;" horiz-adv-x="360" 
d="M325 414h-290v-111h290v111zM219.5 535.5q-16.5 16.5 -39.5 16.5t-39.5 -16.5t-16.5 -39.5t16.5 -39.5t39.5 -16.5t39.5 16.5t16.5 39.5t-16.5 39.5zM219.5 260.5q-16.5 16.5 -39.5 16.5t-39.5 -16.5t-16.5 -39.5t16.5 -39.5t39.5 -16.5t39.5 16.5t16.5 39.5t-16.5 39.5z
" />
    <glyph glyph-name="equal" unicode="=" horiz-adv-x="390" 
d="M355 498h-320v-111h320v111zM355 333h-320v-112h320v112z" />
    <glyph glyph-name="greater" unicode="&#x3e;" horiz-adv-x="361" 
d="M40 545v-122l145 -65l-145 -64v-122l291 131v111z" />
    <glyph glyph-name="less" unicode="&#x3c;" horiz-adv-x="361" 
d="M321 172v122l-145 64l145 65v122l-291 -131v-111z" />
    <glyph glyph-name="percent" unicode="%" horiz-adv-x="597" 
d="M496 18q21 10 37 28q30 35 30 84v10q0 50 -30 83q-16 19 -37 29t-44 10t-44.5 -10t-37.5 -29q-30 -33 -30 -83v-10q0 -49 30 -84q16 -18 37.5 -28t44.5 -10t44 10zM460 156.5q4 -6.5 4 -16.5v-10q0 -10 -4 -16.5t-8 -6.5t-8.5 6.5t-4.5 16.5v10q0 10 4.5 16.5t8.5 6.5
t8 -6.5zM189.5 453q21.5 10 37.5 28q30 36 30 84v9q0 48 -30 84q-16 18 -37.5 28.5t-44.5 10.5t-44 -10.5t-37 -28.5q-30 -34 -30 -84v-9q0 -49 30 -84q16 -18 37 -28t44 -10t44.5 10zM153.5 591q4.5 -7 4.5 -17v-9q0 -10 -4.5 -16.5t-8.5 -6.5t-8 6.5t-4 16.5v9q0 10 4 17
t8 7t8.5 -7zM458 700l-216 -700h-103l216 700h103z" />
    <glyph glyph-name="perthousand" unicode="&#x2030;" horiz-adv-x="850" 
d="M496 18q21 10 37 28q30 35 30 84v10q0 50 -30 83q-16 19 -37 29t-44 10t-44.5 -10t-37.5 -29q-30 -33 -30 -83v-10q0 -49 30 -84q16 -18 37.5 -28t44.5 -10t44 10zM460 156.5q4 -6.5 4 -16.5v-10q0 -10 -4 -16.5t-8 -6.5t-8.5 6.5t-4.5 16.5v10q0 10 4.5 16.5t8.5 6.5
t8 -6.5zM189.5 453q21.5 10 37.5 28q30 36 30 84v9q0 48 -30 84q-16 18 -37.5 28.5t-44.5 10.5t-44 -10.5t-37 -28.5q-30 -34 -30 -84v-9q0 -49 30 -84q16 -18 37 -28t44 -10t44.5 10zM153.5 591q4.5 -7 4.5 -17v-9q0 -10 -4.5 -16.5t-8.5 -6.5t-8 6.5t-4 16.5v9q0 10 4 17
t8 7t8.5 -7zM458 700l-216 -700h-103l216 700h103zM749 18q21 10 37 28q30 35 30 84v10q0 50 -30 83q-16 19 -37 29t-44 10t-44.5 -10t-37.5 -29q-30 -33 -30 -83v-10q0 -49 30 -84q16 -18 37.5 -28t44.5 -10t44 10zM713 156.5q4 -6.5 4 -16.5v-10q0 -10 -4 -16.5t-8 -6.5
t-8.5 6.5t-4.5 16.5v10q0 10 4.5 16.5t8.5 6.5t8 -6.5z" />
    <glyph glyph-name="at" unicode="@" horiz-adv-x="600" 
d="M452 114q54 0 93 21q-31 -68 -95 -106t-150 -38q-114 0 -186 64q-36 31 -60 83t-24 129v160q0 77 24 129t60 83q72 64 186 64q56 0 103.5 -16.5t82.5 -47.5q36 -31 60 -83t24 -129v-84q0 -77 -31 -118q-16 -22 -39 -34t-51 -12q-40 0 -70 24q-31 -24 -79 -24
q-56 0 -90 34q-38 36 -38 103v62q0 67 38 103q33 34 90 34q19 0 27 -2v6h101v-176q0 -44 12 -59q3 -4 9 -4q5 0 9 4q11 18 11 59v84q0 93 -50 137q-43 38 -119 38t-119 -38q-50 -44 -50 -137v-160q0 -93 50 -136q44 -39 119 -39q55 0 94 21l10 6q19 -5 48 -5zM327 316v62
q0 24 -7 31q-5 5 -20 5t-20 -5q-7 -7 -7 -31v-62q0 -24 7 -31q6 -5 20 -5t20 5q7 7 7 31z" />
    <glyph glyph-name="ampersand" unicode="&#x26;" horiz-adv-x="593" 
d="M349.5 9q40.5 18 72.5 52l7 8q12 -36 12 -69h112q0 81 -50 175q25 39 49 81l-96 56l-22 -37q-36 43 -73 72l-20 15q9 6 17 14q37 31 56 72.5t19 88.5v17q0 43 -19 76.5t-54 53.5q-42 24 -94 24t-94 -24q-35 -20 -54 -53.5t-19 -76.5v-17q0 -80 54 -151l-4 -2
q-61 -42 -85 -86.5t-24 -85.5q0 -59 20 -100.5t49 -66.5q62 -54 157 -54q43 0 83.5 18zM272 275l20 -16q42 -34 79 -83q-19 -27 -30 -38q-34 -36 -75 -36q-54 0 -84 27q-31 27 -31 83q0 37 60 79l22 14zM304 587q9 -5 13.5 -12.5t4.5 -20.5v-17q0 -43 -35 -76
q-14 -13 -34 -23q-42 49 -42 99v17q0 13 4.5 20.5t12.5 12.5q16 10 38 10t38 -10z" />
    <glyph glyph-name="paragraph" unicode="&#xb6;" horiz-adv-x="411" 
d="M371 700v-700h-110v590h-20v-590h-110l1 286q-40 9 -68 36q-50 48 -50 130v76q0 81 50 131q46 41 116 41h191z" />
    <glyph glyph-name="section" unicode="&#xa7;" horiz-adv-x="408" 
d="M243 355.5q-16 9.5 -39 9.5q-24 0 -40 -10.5t-16 -31.5t15.5 -32t40.5 -11q56 0 56 47q-1 19 -17 28.5zM260 530v26q0 23 -16.5 33t-39.5 10q-25 0 -40.5 -11t-15.5 -32q0 -33 19.5 -48t61.5 -28q49 -16 73 -32q34 -22 52 -54.5t18 -68.5q0 -31 -13 -60.5t-39 -53.5
l-11 -9q31 -20 46 -44t15 -68q0 -70 -47.5 -111.5t-118.5 -41.5q-72 0 -119 42t-47 111v27h110v-27q0 -21 15.5 -32t40.5 -11t40.5 11t15.5 32q0 23 -10 36.5t-25 21t-44 17.5q-30 10 -49.5 18t-37.5 23q-59 50 -59 115q0 30 13.5 59t39.5 54l10 8q-30 21 -45 45.5t-15 68.5
q0 70 47.5 111.5t118.5 41.5q72 0 119 -42t47 -111v-26h-110z" />
    <glyph glyph-name="copyright" unicode="&#xa9;" horiz-adv-x="736" 
d="M65.5 534q45.5 82 125 128t177.5 46t177.5 -46t125 -128t45.5 -184t-45.5 -184t-125 -128t-177.5 -46t-177.5 46t-125 128t-45.5 184t45.5 184zM128 202q36 -66 99 -103t141 -37t141 37t99 103t36 148t-36 148t-99 103t-141 37t-141 -37t-99 -103t-36 -148t36 -148z
M489.5 164q44.5 47 44.5 125v20h-110v-20q0 -33 -12.5 -47.5t-43.5 -14.5t-43.5 15t-12.5 47v122q0 34 13 48t43 14q32 0 44 -14t12 -48v-20h110v20q0 79 -44.5 125.5t-121.5 46.5t-121.5 -47t-44.5 -125v-122q0 -79 45 -125.5t121 -46.5q77 0 121.5 47z" />
    <glyph glyph-name="registered" unicode="&#xae;" horiz-adv-x="736" 
d="M65.5 534q45.5 82 125 128t177.5 46t177.5 -46t125 -128t45.5 -184t-45.5 -184t-125 -128t-177.5 -46t-177.5 46t-125 128t-45.5 184t45.5 184zM128 202q36 -66 99 -103t141 -37t141 37t99 103t36 148t-36 148t-99 103t-141 37t-141 -37t-99 -103t-36 -148t36 -148z
M319 147h-110v406h166q52 0 90.5 -19.5t59 -51.5t20.5 -69q0 -63 -54 -113q-7 -6 -17 -12l66 -141h-111l-47 112h-63v-112zM319 369h56q28 0 43.5 11t15.5 26t-15.5 26t-43.5 11h-56v-74z" />
    <glyph glyph-name="uni2117" unicode="&#x2117;" horiz-adv-x="736" 
d="M65.5 534q45.5 82 125 128t177.5 46t177.5 -46t125 -128t45.5 -184t-45.5 -184t-125 -128t-177.5 -46t-177.5 46t-125 128t-45.5 184t45.5 184zM128 202q36 -66 99 -103t141 -37t141 37t99 103t36 148t-36 148t-99 103t-141 37t-141 -37t-99 -103t-36 -148t36 -148z
M340 259h56q52 0 90.5 22t58.5 57t20 74q0 38 -18.5 70t-57 51.5t-93.5 19.5h-166v-404h110v110zM340 443h56q28 0 44.5 -11t16.5 -26t-16 -26t-45 -11h-56v74z" />
    <glyph glyph-name="bar" unicode="|" horiz-adv-x="510" 
d="M310 760h-110v-820h110v820z" />
    <glyph glyph-name="brokenbar" unicode="&#xa6;" horiz-adv-x="510" 
d="M310 444h-110v316h110v-316zM200 274h110v-334h-110v334z" />
    <glyph glyph-name="asciicircum" unicode="^" horiz-adv-x="411" 
d="M132 407h-112l131 293h110l130 -293h-111l-74 166z" />
    <glyph glyph-name="ampersand.001" horiz-adv-x="596" 
d="M556 88q-27 9 -77 53q23 34 43.5 67t28.5 48l-95 55q-40 -66 -56 -91l-57 68q-14 18 -38 52q29 15 52 35q37 32 56 73t19 88v9q0 44 -18 78q-16 31 -46 52q-26 19 -53.5 25.5t-48.5 6.5q-58 0 -103 -32q-31 -23 -45 -52q-18 -34 -18 -78v-10q0 -61 48 -151
q-53 -35 -80.5 -80t-27.5 -95t18 -92q17 -41 50 -71q31 -26 72 -40.5t86 -14.5q82 0 146 63q60 -52 105 -69zM257 220q38 -49 76 -90q-31 -29 -67 -29q-52 0 -85 28q-31 27 -31 80q0 44 55 81q25 -36 52 -70zM304 585q18 -11 18 -40v-9q0 -44 -35 -76q-12 -10 -23.5 -17
t-16.5 -9h-1q-18 33 -27 59.5t-9 41.5v10q0 29 17 40q16 12 39 12q22 0 38 -12z" />
    <glyph glyph-name="uni0326" unicode="&#x326;" horiz-adv-x="0" 
d="M-95 -44.5q15 -14.5 15 -34.5q0 -18 -14 -46q-9 -18 -26.5 -44t-23.5 -34h-29l20 52q3 7 3 14q0 9 -7 15q-10 9 -16 18.5t-6 24.5q0 20 14.5 34.5t34.5 14.5t35 -14.5z" />
    <glyph glyph-name="acute" unicode="&#xb4;" horiz-adv-x="185" 
d="M175 847h-110l-55 -110h55z" />
    <glyph glyph-name="breve" unicode="&#x2d8;" horiz-adv-x="234" 
d="M224 844q0 -44 -31.5 -75.5t-75.5 -31.5t-75.5 31.5t-31.5 75.5h55q0 -22 15 -37t37 -15t37 15t15 37h55z" />
    <glyph glyph-name="caron" unicode="&#x2c7;" horiz-adv-x="241" 
d="M176 737h-110l-56 110h56l55 -55l55 55h55z" />
    <glyph glyph-name="cedilla" unicode="&#xb8;" horiz-adv-x="159" 
d="M129 -120q20 20 20 49q0 24 -10 38t-26 25q-6 4 -6 8v1h-55v-1q0 -33 29 -53q9 -6 11 -9t2 -9t-4 -10t-10 -4t-10.5 4t-4.5 10h-55q0 -28 20.5 -48.5t49.5 -20.5t49 20z" />
    <glyph glyph-name="circumflex" unicode="&#x2c6;" horiz-adv-x="241" 
d="M176 737l-55 55l-55 -55h-56l56 110h110l55 -110h-55z" />
    <glyph glyph-name="dieresis" unicode="&#xa8;" horiz-adv-x="270" 
d="M24.5 750.5q14.5 -14.5 34.5 -14.5t34.5 14.5t14.5 34.5q0 21 -14.5 35.5t-34.5 14.5t-34.5 -14.5t-14.5 -35.5q0 -20 14.5 -34.5zM176.5 750.5q14.5 -14.5 34.5 -14.5t34.5 14.5t14.5 34.5q0 21 -14.5 35.5t-34.5 14.5t-34.5 -14.5t-14.5 -35.5q0 -20 14.5 -34.5z" />
    <glyph glyph-name="dotaccent" unicode="&#x2d9;" horiz-adv-x="118" 
d="M24.5 750.5q14.5 -14.5 34.5 -14.5t34.5 14.5t14.5 34.5q0 21 -14.5 35.5t-34.5 14.5t-34.5 -14.5t-14.5 -35.5q0 -20 14.5 -34.5z" />
    <glyph glyph-name="grave" unicode="`" horiz-adv-x="185" 
d="M175 737l-55 110h-110l110 -110h55z" />
    <glyph glyph-name="hungarumlaut" unicode="&#x2dd;" horiz-adv-x="334" 
d="M175 847h-110l-55 -110h55zM324 847h-110l-55 -110h55z" />
    <glyph glyph-name="macron" unicode="&#xaf;" horiz-adv-x="323" 
d="M313 826h-303v-85h303v85z" />
    <glyph glyph-name="ring" unicode="&#x2da;" horiz-adv-x="181" 
d="M147.5 757.5q23.5 23.5 23.5 56.5t-23.5 56.5t-56.5 23.5q-34 0 -57.5 -23.5t-23.5 -56.5t23.5 -56.5t57.5 -23.5q33 0 56.5 23.5zM109 832q7 -7 7 -18q0 -10 -7 -17.5t-18 -7.5t-18.5 7.5t-7.5 17.5t7.5 17.5t18.5 7.5t18 -7z" />
    <glyph glyph-name="tilde" unicode="&#x2dc;" horiz-adv-x="291" 
d="M210 819q10 6 18 23l53 -37q-25 -68 -85 -68q-15 0 -26.5 3.5t-26.5 10.5q-22 11 -37 11t-25 -6t-18 -23l-53 37q25 68 85 68q15 0 26.5 -3.5t26.5 -10.5q22 -11 37 -11t25 6z" />
    <glyph glyph-name="newGlyph" horiz-adv-x="600" 
 />
    </font>
</defs>
</svg>
